<?xml version="1.0" encoding="UTF-8" standalone="no"?>
<svg
   xmlns:dc="http://purl.org/dc/elements/1.1/"
   xmlns:cc="http://creativecommons.org/ns#"
   xmlns:rdf="http://www.w3.org/1999/02/22-rdf-syntax-ns#"
   xmlns:svg="http://www.w3.org/2000/svg"
   xmlns="http://www.w3.org/2000/svg"
   xmlns:sodipodi="http://sodipodi.sourceforge.net/DTD/sodipodi-0.dtd"
   xmlns:inkscape="http://www.inkscape.org/namespaces/inkscape"
   version="1.1"
   id="svg2"
   xml:space="preserve"
   width="578.79999"
   height="156.39999"
   viewBox="0 0 578.79999 156.39999"
   sodipodi:docname="20172111_Epiroc Logos_Epiroc Grey_RGB.eps"><metadata
     id="metadata8"><rdf:RDF><cc:Work
         rdf:about=""><dc:format>image/svg+xml</dc:format><dc:type
           rdf:resource="http://purl.org/dc/dcmitype/StillImage" /></cc:Work></rdf:RDF></metadata><defs
     id="defs6" /><sodipodi:namedview
     pagecolor="#ffffff"
     bordercolor="#666666"
     borderopacity="1"
     objecttolerance="10"
     gridtolerance="10"
     guidetolerance="10"
     inkscape:pageopacity="0"
     inkscape:pageshadow="2"
     inkscape:window-width="640"
     inkscape:window-height="480"
     id="namedview4" /><g
     id="g10"
     inkscape:groupmode="layer"
     inkscape:label="ink_ext_XXXXXX"
     transform="matrix(1.3333333,0,0,-1.3333333,0,156.4)"><g
       id="g12"
       transform="scale(0.1)"><path
         d="m 2555.45,1054.85 c -54.55,0 -100.03,-45.47 -100.03,-101.159 0,-55.699 45.48,-101.171 100.03,-101.171 56.83,0 102.31,45.472 102.31,101.171 0,55.689 -45.48,101.159 -102.31,101.159"
         style="fill:#3a4d5d;fill-opacity:1;fill-rule:nonzero;stroke:none"
         id="path14" /><path
         d="m 4330.12,399.992 -124.03,37.942 c -7.55,2.312 -15.45,-1.536 -18.53,-8.789 -15.91,-37.297 -52.29,-71.086 -112.4,-71.086 -71.61,0 -131.85,50.011 -131.85,139.816 0,90.938 57.97,140.949 129.59,140.949 60.12,0 93.74,-32.883 109.07,-70.824 2.99,-7.371 10.97,-11.355 18.6,-9.07 l 126.16,38.035 c 8.27,2.492 12.76,11.262 10.17,19.488 -30.02,95.344 -119.49,181.504 -267.42,181.504 -165.96,0 -297.81,-123.902 -297.81,-300.082 0,-175.051 135.26,-298.945 303.49,-298.945 143.45,0 234.71,88.008 265.02,181.484 2.67,8.231 -1.8,17.051 -10.06,19.578"
         style="fill:#3a4d5d;fill-opacity:1;fill-rule:nonzero;stroke:none"
         id="path16" /><path
         d="m 3422.43,358.059 c -64.8,0 -127.3,46.621 -127.3,140.949 0,95.488 62.5,139.816 127.3,139.816 65.94,0 127.31,-44.328 127.31,-139.816 0,-95.488 -61.37,-140.949 -127.31,-140.949 z m 0,439.902 c -168.22,0 -300.09,-123.906 -300.09,-298.953 0,-175.051 131.87,-300.078 300.09,-300.078 169.37,0 300.09,125.027 300.09,300.078 0,175.047 -130.72,298.953 -300.09,298.953"
         style="fill:#3a4d5d;fill-opacity:1;fill-rule:nonzero;stroke:none"
         id="path18" /><path
         d="m 3105.75,781.016 c -16.27,3.425 -36.74,5.578 -49.64,5.578 -45.47,0 -117.08,-18.192 -146.63,-81.856 v 60.867 c 0,8.45 -6.85,15.305 -15.31,15.305 h -136.49 c -8.44,0 -15.3,-6.855 -15.3,-15.305 V 231.293 c 0,-8.469 6.86,-15.313 15.3,-15.313 h 142.18 c 8.45,0 15.3,6.844 15.3,15.313 v 231.348 c 0,112.539 62.52,153.754 131.85,153.754 11.73,0 22.04,-0.512 32.77,-1.954 8.38,-1.121 16.16,4.489 17.41,12.836 l 20.51,136.473 c 1.22,8.031 -4.01,15.598 -11.95,17.266"
         style="fill:#3a4d5d;fill-opacity:1;fill-rule:nonzero;stroke:none"
         id="path20" /><path
         d="M 2627.66,780.906 H 2485.5 c -8.45,0 -15.31,-6.843 -15.31,-15.297 V 231.281 c 0,-8.457 6.86,-15.301 15.31,-15.301 h 142.16 c 8.46,0 15.32,6.844 15.32,15.301 v 534.328 c 0,8.454 -6.86,15.297 -15.32,15.297"
         style="fill:#3a4d5d;fill-opacity:1;fill-rule:nonzero;stroke:none"
         id="path22" /><path
         d="m 2106.36,358.059 c -67.06,0 -127.3,47.746 -127.3,140.957 0,94.336 60.24,139.804 127.3,139.804 68.2,0 128.44,-45.468 128.44,-139.804 0,-94.344 -60.24,-140.957 -128.44,-140.957 z m 35.24,436.5 c -80.71,0 -142.09,-35.239 -165.96,-71.625 v 42.675 c 0,8.442 -6.85,15.297 -15.3,15.297 h -136.49 c -8.46,0 -15.3,-6.855 -15.3,-15.297 V 15.3203 C 1808.55,6.85938 1815.39,0 1823.85,0 h 142.17 c 8.46,0 15.3,6.85938 15.3,15.3203 V 260.305 c 26.15,-31.817 80.7,-56.825 153.45,-56.825 158,0 269.4,123.887 269.4,296.668 0,169.368 -98.88,294.411 -262.57,294.411"
         style="fill:#3a4d5d;fill-opacity:1;fill-rule:nonzero;stroke:none"
         id="path24" /><path
         d="m 1718.3,386.477 h -301.31 c -8.45,0 -15.3,6.847 -15.3,15.304 v 123.985 c 0,8.445 6.85,15.293 15.3,15.293 h 269.47 c 8.46,0 15.31,6.855 15.31,15.312 v 127.391 c 0,8.449 -6.85,15.308 -15.31,15.308 h -269.47 c -8.45,0 -15.3,6.848 -15.3,15.297 v 122.852 c 0,8.441 6.85,15.301 15.3,15.301 h 300.17 c 8.45,0 15.3,6.843 15.3,15.296 v 138.774 c 0,8.44 -6.85,15.29 -15.3,15.29 h -479.77 c -8.44,0 -15.3,-6.85 -15.3,-15.29 V 231.281 c 0,-8.457 6.86,-15.301 15.3,-15.301 h 480.91 c 8.45,0 15.31,6.844 15.31,15.301 v 139.895 c 0,8.445 -6.86,15.301 -15.31,15.301"
         style="fill:#3a4d5d;fill-opacity:1;fill-rule:nonzero;stroke:none"
         id="path26" /><path
         d="m 912.508,933.91 c -131.738,76.06 -263.473,152.12 -395.211,228.17 -25.18,14.55 -56.211,14.55 -81.391,0 C 304.168,1086.03 172.434,1009.97 40.6953,933.91 15.5156,919.371 0,892.504 0,863.422 0,711.309 0,559.191 0,407.074 0,378 15.5156,351.125 40.6953,336.586 172.434,260.531 304.168,184.477 435.906,108.41 c 25.18,-14.5389 56.211,-14.5389 81.391,0 131.738,76.067 263.473,152.121 395.211,228.176 25.18,14.539 40.691,41.414 40.691,70.488 0,69.09 0,138.172 0,207.254 C 794.34,519.348 635.473,424.367 476.605,329.387 388.313,380.363 300.02,431.34 211.723,482.316 c 0,101.954 0,203.914 0,305.868 79.246,45.754 158.496,91.511 237.742,137.265 16.781,9.688 37.469,9.656 54.195,-0.113 C 582.793,879.223 661.922,833.113 741.059,787 659.473,739.914 577.883,692.836 496.301,645.75 c -17.336,-9.996 -38.68,-9.996 -56.004,0 -58.649,33.824 -117.289,67.648 -175.934,101.469 0,-79.18 0,-158.36 0,-237.539 69.375,-37.117 138.75,-74.239 208.125,-111.356 146.668,84.649 293.34,169.297 440.012,253.946 25.184,14.535 40.699,41.41 40.699,70.496 0,46.886 0,93.769 0,140.656 0,29.082 -15.511,55.949 -40.691,70.488"
         style="fill:#3a4d5d;fill-opacity:1;fill-rule:nonzero;stroke:none"
         id="path28" /></g></g></svg>
